<svg width="2452" height="4510" xmlns="http://www.w3.org/2000/svg" xmlns:xlink="http://www.w3.org/1999/xlink" overflow="hidden"><defs><clipPath id="clip0"><rect x="36" y="55" width="2452" height="4510"/></clipPath><clipPath id="clip1"><rect x="44" y="61" width="2439" height="4494"/></clipPath><clipPath id="clip2"><rect x="44" y="61" width="2439" height="4494"/></clipPath><clipPath id="clip3"><rect x="80" y="488" width="2314" height="3865"/></clipPath><clipPath id="clip4"><rect x="80" y="488" width="2314" height="3865"/></clipPath><clipPath id="clip5"><rect x="80" y="488" width="2314" height="3865"/></clipPath><clipPath id="clip6"><rect x="80" y="488" width="2314" height="3865"/></clipPath><clipPath id="clip7"><rect x="80" y="488" width="2314" height="3865"/></clipPath><clipPath id="clip8"><rect x="80" y="488" width="2314" height="3865"/></clipPath><clipPath id="clip9"><rect x="80" y="488" width="2314" height="3865"/></clipPath><clipPath id="clip10"><rect x="80" y="488" width="2314" height="3865"/></clipPath><clipPath id="clip11"><rect x="80" y="488" width="2314" height="3865"/></clipPath><clipPath id="clip12"><rect x="80" y="488" width="2314" height="3865"/></clipPath><clipPath id="clip13"><rect x="80" y="488" width="2314" height="3865"/></clipPath><clipPath id="clip14"><rect x="80" y="488" width="2314" height="3865"/></clipPath><clipPath id="clip15"><rect x="44" y="61" width="2439" height="4494"/></clipPath><clipPath id="clip16"><rect x="44" y="61" width="2439" height="4494"/></clipPath><clipPath id="clip17"><rect x="44" y="61" width="2439" height="4494"/></clipPath><clipPath id="clip18"><rect x="44" y="61" width="2439" height="4494"/></clipPath><clipPath id="clip19"><rect x="44" y="61" width="2439" height="4494"/></clipPath><clipPath id="clip20"><rect x="44" y="61" width="2439" height="4494"/></clipPath><clipPath id="clip21"><rect x="44" y="61" width="2439" height="4494"/></clipPath><clipPath id="clip22"><rect x="44" y="61" width="2439" height="4494"/></clipPath><clipPath id="clip23"><rect x="44" y="61" width="2439" height="4494"/></clipPath><clipPath id="clip24"><rect x="44" y="61" width="2439" height="4494"/></clipPath><clipPath id="clip25"><rect x="44" y="61" width="2439" height="4494"/></clipPath><clipPath id="clip26"><rect x="44" y="61" width="2439" height="4494"/></clipPath><clipPath id="clip27"><rect x="44" y="61" width="2439" height="4494"/></clipPath><clipPath id="clip28"><rect x="44" y="61" width="2439" height="4494"/></clipPath><clipPath id="clip29"><rect x="44" y="61" width="2439" height="4494"/></clipPath><clipPath id="clip30"><rect x="44" y="61" width="2439" height="4494"/></clipPath><clipPath id="clip31"><rect x="44" y="61" width="2439" height="4494"/></clipPath><clipPath id="clip32"><rect x="44" y="61" width="2439" height="4494"/></clipPath><clipPath id="clip33"><rect x="44" y="61" width="2439" height="4494"/></clipPath><clipPath id="clip34"><rect x="44" y="61" width="2439" height="4494"/></clipPath><clipPath id="clip35"><rect x="44" y="61" width="2439" height="4494"/></clipPath><clipPath id="clip36"><rect x="44" y="61" width="2439" height="4494"/></clipPath><clipPath id="clip37"><rect x="44" y="61" width="2439" height="4494"/></clipPath><clipPath id="clip38"><rect x="44" y="61" width="2439" height="4494"/></clipPath><clipPath id="clip39"><rect x="44" y="61" width="2439" height="4494"/></clipPath><clipPath id="clip40"><rect x="44" y="61" width="2439" height="4494"/></clipPath><clipPath id="clip41"><rect x="44" y="61" width="2439" height="4494"/></clipPath><clipPath id="clip42"><rect x="44" y="61" width="2439" height="4494"/></clipPath><clipPath id="clip43"><rect x="44" y="61" width="2439" height="4494"/></clipPath><clipPath id="clip44"><rect x="44" y="61" width="2439" height="4494"/></clipPath><clipPath id="clip45"><rect x="44" y="61" width="2439" height="4494"/></clipPath><clipPath id="clip46"><rect x="44" y="61" width="2439" height="4494"/></clipPath><clipPath id="clip47"><rect x="44" y="61" width="2439" height="4494"/></clipPath><clipPath id="clip48"><rect x="44" y="61" width="2439" height="4494"/></clipPath><clipPath id="clip49"><rect x="44" y="61" width="2439" height="4494"/></clipPath><clipPath id="clip50"><rect x="44" y="61" width="2439" height="4494"/></clipPath><clipPath id="clip51"><rect x="44" y="61" width="2439" height="4494"/></clipPath><clipPath id="clip52"><rect x="44" y="61" width="2439" height="4494"/></clipPath><clipPath id="clip53"><rect x="44" y="61" width="2439" height="4494"/></clipPath><clipPath id="clip54"><rect x="44" y="61" width="2439" height="4494"/></clipPath><clipPath id="clip55"><rect x="44" y="61" width="2439" height="4494"/></clipPath><clipPath id="clip56"><rect x="44" y="61" width="2439" height="4494"/></clipPath><clipPath id="clip57"><rect x="44" y="61" width="2439" height="4494"/></clipPath><clipPath id="clip58"><rect x="44" y="61" width="2439" height="4494"/></clipPath><clipPath id="clip59"><rect x="44" y="61" width="2439" height="4494"/></clipPath><clipPath id="clip60"><rect x="44" y="61" width="2439" height="4494"/></clipPath><clipPath id="clip61"><rect x="44" y="61" width="2439" height="4494"/></clipPath><clipPath id="clip62"><rect x="44" y="61" width="2439" height="4494"/></clipPath><clipPath id="clip63"><rect x="44" y="61" width="2439" height="4494"/></clipPath><clipPath id="clip64"><rect x="44" y="61" width="2439" height="4494"/></clipPath><clipPath id="clip65"><rect x="44" y="61" width="2439" height="4494"/></clipPath><clipPath id="clip66"><rect x="44" y="61" width="2439" height="4494"/></clipPath><clipPath id="clip67"><rect x="44" y="61" width="2439" height="4494"/></clipPath><clipPath id="clip68"><rect x="44" y="61" width="2439" height="4494"/></clipPath><clipPath id="clip69"><rect x="44" y="61" width="2439" height="4494"/></clipPath><clipPath id="clip70"><rect x="44" y="61" width="2439" height="4494"/></clipPath></defs><g clip-path="url(#clip0)" transform="translate(-36 -55)"><rect x="45" y="61.9999" width="2438" height="4494" fill="#FFFFFF" fill-opacity="1"/><g clip-path="url(#clip1)"><path d="M1237.5 488.5 1237.5 4349.5" stroke="#7F7F7F" stroke-width="11.4583" stroke-linecap="butt" stroke-linejoin="round" stroke-miterlimit="10" stroke-opacity="1" fill="none" fill-rule="evenodd"/></g><g clip-path="url(#clip2)"><path d="M1215.54 488.5 1237.54 488.5M1215.54 636.521 1237.54 636.521M1215.54 785.526 1237.54 785.526M1215.54 933.531 1237.54 933.531M1215.54 1082.54 1237.54 1082.54M1215.54 1230.54 1237.54 1230.54M1215.54 1379.55 1237.54 1379.55M1215.54 1527.55 1237.54 1527.55M1215.54 1676.56 1237.54 1676.56M1215.54 1824.56 1237.54 1824.56M1215.54 1973.56 1237.54 1973.56M1215.54 2121.57 1237.54 2121.57M1215.54 2270.57 1237.54 2270.57M1215.54 2418.58 1237.54 2418.58M1215.54 2567.58 1237.54 2567.58M1215.54 2716.59 1237.54 2716.59M1215.54 2864.59 1237.54 2864.59M1215.54 3013.6 1237.54 3013.6M1215.54 3161.6 1237.54 3161.6M1215.54 3310.61 1237.54 3310.61M1215.54 3458.61 1237.54 3458.61M1215.54 3607.62 1237.54 3607.62M1215.54 3755.62 1237.54 3755.62M1215.54 3904.63 1237.54 3904.63M1215.54 4052.63 1237.54 4052.63M1215.54 4201.64 1237.54 4201.64M1215.54 4349.5 1237.54 4349.5M1208.5 488.5 1266.5 488.5M1208.5 785.526 1266.5 785.526M1208.5 1082.54 1266.5 1082.54M1208.5 1379.55 1266.5 1379.55M1208.5 1676.56 1266.5 1676.56M1208.5 1973.56 1266.5 1973.56M1208.5 2270.57 1266.5 2270.57M1208.5 2567.58 1266.5 2567.58M1208.5 2864.59 1266.5 2864.59M1208.5 3161.6 1266.5 3161.6M1208.5 3458.61 1266.5 3458.61M1208.5 3755.62 1266.5 3755.62M1208.5 4052.63 1266.5 4052.63M1208.5 4349.5 1266.5 4349.5" stroke="#7F7F7F" stroke-width="11.4583" stroke-linecap="butt" stroke-linejoin="round" stroke-miterlimit="10" stroke-opacity="1" fill="none" fill-rule="nonzero"/></g><g clip-path="url(#clip3)"><path d="M2132 488 1238 488" stroke="#4F81BD" stroke-width="8.02083" stroke-linecap="butt" stroke-linejoin="round" stroke-miterlimit="10" stroke-dasharray="8.02083 8.02083" stroke-opacity="1" fill="none" fill-rule="nonzero"/></g><g clip-path="url(#clip4)"><path d="M1764 637 1238 637" stroke="#4F81BD" stroke-width="8.02083" stroke-linecap="butt" stroke-linejoin="round" stroke-miterlimit="10" stroke-dasharray="8.02083 8.02083" stroke-opacity="1" fill="none" fill-rule="nonzero"/></g><g clip-path="url(#clip5)"><path d="M343 934 1238 934" stroke="#4F81BD" stroke-width="8.02083" stroke-linecap="butt" stroke-linejoin="round" stroke-miterlimit="10" stroke-dasharray="8.02083 8.02083" stroke-opacity="1" fill="none" fill-rule="nonzero"/></g><g clip-path="url(#clip6)"><path d="M712 1231 1238 1231" stroke="#4F81BD" stroke-width="8.02083" stroke-linecap="butt" stroke-linejoin="round" stroke-miterlimit="10" stroke-dasharray="8.02083 8.02083" stroke-opacity="1" fill="none" fill-rule="nonzero"/></g><g clip-path="url(#clip7)"><path d="M606 1676 1238 1676" stroke="#4F81BD" stroke-width="8.02083" stroke-linecap="butt" stroke-linejoin="round" stroke-miterlimit="10" stroke-dasharray="8.02083 8.02083" stroke-opacity="1" fill="none" fill-rule="nonzero"/></g><g clip-path="url(#clip8)"><path d="M2132 2122 1238 2122" stroke="#4F81BD" stroke-width="8.02083" stroke-linecap="butt" stroke-linejoin="round" stroke-miterlimit="10" stroke-dasharray="8.02083 8.02083" stroke-opacity="1" fill="none" fill-rule="nonzero"/></g><g clip-path="url(#clip9)"><path d="M1869 2568 1238 2568" stroke="#4F81BD" stroke-width="8.02083" stroke-linecap="butt" stroke-linejoin="round" stroke-miterlimit="10" stroke-dasharray="8.02083 8.02083" stroke-opacity="1" fill="none" fill-rule="nonzero"/></g><g clip-path="url(#clip10)"><path d="M343 2865 1238 2865" stroke="#4F81BD" stroke-width="8.02083" stroke-linecap="butt" stroke-linejoin="round" stroke-miterlimit="10" stroke-dasharray="8.02083 8.02083" stroke-opacity="1" fill="none" fill-rule="nonzero"/></g><g clip-path="url(#clip11)"><path d="M606 3162 1238 3162" stroke="#4F81BD" stroke-width="8.02083" stroke-linecap="butt" stroke-linejoin="round" stroke-miterlimit="10" stroke-dasharray="8.02083 8.02083" stroke-opacity="1" fill="none" fill-rule="nonzero"/></g><g clip-path="url(#clip12)"><path d="M2132 3607 1238 3607" stroke="#4F81BD" stroke-width="8.02083" stroke-linecap="butt" stroke-linejoin="round" stroke-miterlimit="10" stroke-dasharray="8.02083 8.02083" stroke-opacity="1" fill="none" fill-rule="nonzero"/></g><g clip-path="url(#clip13)"><path d="M1869 3904 1238 3904" stroke="#4F81BD" stroke-width="8.02083" stroke-linecap="butt" stroke-linejoin="round" stroke-miterlimit="10" stroke-dasharray="8.02083 8.02083" stroke-opacity="1" fill="none" fill-rule="nonzero"/></g><g clip-path="url(#clip14)"><path d="M343 4350 1238 4350" stroke="#4F81BD" stroke-width="8.02083" stroke-linecap="butt" stroke-linejoin="round" stroke-miterlimit="10" stroke-dasharray="8.02083 8.02083" stroke-opacity="1" fill="none" fill-rule="nonzero"/></g><g clip-path="url(#clip15)"><path d="M2108.69 464.875 2154.69 464.875 2154.69 510.875 2108.69 510.875Z" fill="#E46C0A" fill-rule="nonzero" fill-opacity="1"/><path d="M1740.69 613.875 1786.69 613.875 1786.69 659.875 1740.69 659.875Z" fill="#E46C0A" fill-rule="nonzero" fill-opacity="1"/><path d="M319.688 910.875 365.688 910.875 365.688 956.875 319.688 956.875Z" fill="#E46C0A" fill-rule="nonzero" fill-opacity="1"/><path d="M688.688 1207.88 734.688 1207.88 734.688 1253.88 688.688 1253.88Z" fill="#E46C0A" fill-rule="nonzero" fill-opacity="1"/><path d="M582.688 1652.88 628.688 1652.88 628.688 1698.88 582.688 1698.88Z" fill="#E46C0A" fill-rule="nonzero" fill-opacity="1"/><path d="M2108.69 2098.88 2154.69 2098.88 2154.69 2144.88 2108.69 2144.88Z" fill="#E46C0A" fill-rule="nonzero" fill-opacity="1"/><path d="M1845.69 2544.88 1891.69 2544.88 1891.69 2590.88 1845.69 2590.88Z" fill="#E46C0A" fill-rule="nonzero" fill-opacity="1"/><path d="M319.688 2841.88 365.688 2841.88 365.688 2887.88 319.688 2887.88Z" fill="#E46C0A" fill-rule="nonzero" fill-opacity="1"/><path d="M582.688 3138.88 628.688 3138.88 628.688 3184.88 582.688 3184.88Z" fill="#E46C0A" fill-rule="nonzero" fill-opacity="1"/><path d="M2108.69 3583.88 2154.69 3583.88 2154.69 3629.88 2108.69 3629.88Z" fill="#E46C0A" fill-rule="nonzero" fill-opacity="1"/><path d="M1845.69 3880.88 1891.69 3880.88 1891.69 3926.88 1845.69 3926.88Z" fill="#E46C0A" fill-rule="nonzero" fill-opacity="1"/><path d="M319.688 4326.88 365.688 4326.88 365.688 4372.88 319.688 4372.88Z" fill="#E46C0A" fill-rule="nonzero" fill-opacity="1"/></g><g clip-path="url(#clip16)"><rect x="1927" y="525" width="410" height="181" fill="#FFFFFF" fill-opacity="0.721569"/></g><g clip-path="url(#clip17)"><text fill="#376092" fill-opacity="1" font-family="Calibri,Calibri_MSFontService,sans-serif" font-style="normal" font-variant="normal" font-weight="700" font-stretch="normal" font-size="73" text-anchor="start" direction="ltr" writing-mode="lr-tb" unicode-bidi="normal" text-decoration="none" transform="matrix(1 0 0 1 1942.53 596)">OpenMP 1.0 </text></g><g clip-path="url(#clip18)"><text fill="#376092" fill-opacity="1" font-family="Calibri,Calibri_MSFontService,sans-serif" font-style="normal" font-variant="normal" font-weight="700" font-stretch="normal" font-size="73" text-anchor="start" direction="ltr" writing-mode="lr-tb" unicode-bidi="normal" text-decoration="none" transform="matrix(1 0 0 1 2020.1 685)">Fortran</text></g><g clip-path="url(#clip19)"><rect x="1559" y="673" width="410" height="181" fill="#FFFFFF" fill-opacity="0.721569"/></g><g clip-path="url(#clip20)"><text fill="#376092" fill-opacity="1" font-family="Calibri,Calibri_MSFontService,sans-serif" font-style="normal" font-variant="normal" font-weight="700" font-stretch="normal" font-size="73" text-anchor="start" direction="ltr" writing-mode="lr-tb" unicode-bidi="normal" text-decoration="none" transform="matrix(1 0 0 1 1574.27 744)">OpenMP 1.0 </text></g><g clip-path="url(#clip21)"><text fill="#376092" fill-opacity="1" font-family="Calibri,Calibri_MSFontService,sans-serif" font-style="normal" font-variant="normal" font-weight="700" font-stretch="normal" font-size="73" text-anchor="start" direction="ltr" writing-mode="lr-tb" unicode-bidi="normal" text-decoration="none" transform="matrix(1 0 0 1 1672.14 833)">C/C++</text></g><g clip-path="url(#clip22)"><rect x="138" y="971" width="410" height="180" fill="#FFFFFF" fill-opacity="0.721569"/></g><g clip-path="url(#clip23)"><text fill="#376092" fill-opacity="1" font-family="Calibri,Calibri_MSFontService,sans-serif" font-style="normal" font-variant="normal" font-weight="700" font-stretch="normal" font-size="73" text-anchor="start" direction="ltr" writing-mode="lr-tb" unicode-bidi="normal" text-decoration="none" transform="matrix(1 0 0 1 153.827 1041)">OpenMP 2.0 </text></g><g clip-path="url(#clip24)"><text fill="#376092" fill-opacity="1" font-family="Calibri,Calibri_MSFontService,sans-serif" font-style="normal" font-variant="normal" font-weight="700" font-stretch="normal" font-size="73" text-anchor="start" direction="ltr" writing-mode="lr-tb" unicode-bidi="normal" text-decoration="none" transform="matrix(1 0 0 1 231.399 1130)">Fortran</text></g><g clip-path="url(#clip25)"><rect x="506" y="1268" width="411" height="180" fill="#FFFFFF" fill-opacity="0.721569"/></g><g clip-path="url(#clip26)"><text fill="#376092" fill-opacity="1" font-family="Calibri,Calibri_MSFontService,sans-serif" font-style="normal" font-variant="normal" font-weight="700" font-stretch="normal" font-size="73" text-anchor="start" direction="ltr" writing-mode="lr-tb" unicode-bidi="normal" text-decoration="none" transform="matrix(1 0 0 1 522.088 1338)">OpenMP 2.0 </text></g><g clip-path="url(#clip27)"><text fill="#376092" fill-opacity="1" font-family="Calibri,Calibri_MSFontService,sans-serif" font-style="normal" font-variant="normal" font-weight="700" font-stretch="normal" font-size="73" text-anchor="start" direction="ltr" writing-mode="lr-tb" unicode-bidi="normal" text-decoration="none" transform="matrix(1 0 0 1 619.965 1427)">C/C++</text></g><g clip-path="url(#clip28)"><rect x="371" y="1713" width="470" height="271" fill="#FFFFFF" fill-opacity="0.721569"/></g><g clip-path="url(#clip29)"><text fill="#376092" fill-opacity="1" font-family="Calibri,Calibri_MSFontService,sans-serif" font-style="normal" font-variant="normal" font-weight="700" font-stretch="normal" font-size="73" text-anchor="start" direction="ltr" writing-mode="lr-tb" unicode-bidi="normal" text-decoration="none" transform="matrix(1 0 0 1 416.871 1784)">OpenMP 2.5 </text></g><g clip-path="url(#clip30)"><text fill="#376092" fill-opacity="1" font-family="Calibri,Calibri_MSFontService,sans-serif" font-style="normal" font-variant="normal" font-weight="700" font-stretch="normal" font-size="73" text-anchor="start" direction="ltr" writing-mode="lr-tb" unicode-bidi="normal" text-decoration="none" transform="matrix(1 0 0 1 450.856 1873)">Combined </text></g><g clip-path="url(#clip31)"><text fill="#376092" fill-opacity="1" font-family="Calibri,Calibri_MSFontService,sans-serif" font-style="normal" font-variant="normal" font-weight="700" font-stretch="normal" font-size="73" text-anchor="start" direction="ltr" writing-mode="lr-tb" unicode-bidi="normal" text-decoration="none" transform="matrix(1 0 0 1 387.125 1963)">Fortran/C/C++</text></g><g clip-path="url(#clip32)"><rect x="1927" y="2159" width="410" height="271" fill="#FFFFFF" fill-opacity="0.721569"/></g><g clip-path="url(#clip33)"><text fill="#376092" fill-opacity="1" font-family="Calibri,Calibri_MSFontService,sans-serif" font-style="normal" font-variant="normal" font-weight="700" font-stretch="normal" font-size="73" text-anchor="start" direction="ltr" writing-mode="lr-tb" unicode-bidi="normal" text-decoration="none" transform="matrix(1 0 0 1 1942.53 2230)">OpenMP 3.0 </text></g><g clip-path="url(#clip34)"><text fill="#376092" fill-opacity="1" font-family="Calibri,Calibri_MSFontService,sans-serif" font-style="normal" font-variant="normal" font-weight="700" font-stretch="normal" font-size="73" text-anchor="start" direction="ltr" writing-mode="lr-tb" unicode-bidi="normal" text-decoration="none" transform="matrix(1 0 0 1 1965.01 2319)">Introduced </text></g><g clip-path="url(#clip35)"><text fill="#376092" fill-opacity="1" font-family="Calibri,Calibri_MSFontService,sans-serif" font-style="normal" font-variant="normal" font-weight="700" font-stretch="normal" font-size="73" text-anchor="start" direction="ltr" writing-mode="lr-tb" unicode-bidi="normal" text-decoration="none" transform="matrix(1 0 0 1 2054.93 2409)">tasks</text></g><g clip-path="url(#clip36)"><rect x="1631" y="2604" width="476" height="181" fill="#FFFFFF" fill-opacity="0.721569"/></g><g clip-path="url(#clip37)"><text fill="#376092" fill-opacity="1" font-family="Calibri,Calibri_MSFontService,sans-serif" font-style="normal" font-variant="normal" font-weight="700" font-stretch="normal" font-size="73" text-anchor="start" direction="ltr" writing-mode="lr-tb" unicode-bidi="normal" text-decoration="none" transform="matrix(1 0 0 1 1679.48 2675)">OpenMP 3.1 </text></g><g clip-path="url(#clip38)"><text fill="#376092" fill-opacity="1" font-family="Calibri,Calibri_MSFontService,sans-serif" font-style="normal" font-variant="normal" font-weight="700" font-stretch="normal" font-size="73" text-anchor="start" direction="ltr" writing-mode="lr-tb" unicode-bidi="normal" text-decoration="none" transform="matrix(1 0 0 1 1647.01 2764)">Improvements</text></g><g clip-path="url(#clip39)"><rect x="138" y="2901" width="410" height="181" fill="#FFFFFF" fill-opacity="0.721569"/></g><g clip-path="url(#clip40)"><text fill="#376092" fill-opacity="1" font-family="Calibri,Calibri_MSFontService,sans-serif" font-style="normal" font-variant="normal" font-weight="700" font-stretch="normal" font-size="73" text-anchor="start" direction="ltr" writing-mode="lr-tb" unicode-bidi="normal" text-decoration="none" transform="matrix(1 0 0 1 153.827 2972)">OpenMP 4.0 </text></g><g clip-path="url(#clip41)"><text fill="#376092" fill-opacity="1" font-family="Calibri,Calibri_MSFontService,sans-serif" font-style="normal" font-variant="normal" font-weight="700" font-stretch="normal" font-size="73" text-anchor="start" direction="ltr" writing-mode="lr-tb" unicode-bidi="normal" text-decoration="none" transform="matrix(1 0 0 1 155.133 3061)">Accelerators</text></g><g clip-path="url(#clip42)"><rect x="366" y="3198" width="480" height="272" fill="#FFFFFF" fill-opacity="0.721569"/></g><g clip-path="url(#clip43)"><text fill="#376092" fill-opacity="1" font-family="Calibri,Calibri_MSFontService,sans-serif" font-style="normal" font-variant="normal" font-weight="700" font-stretch="normal" font-size="73" text-anchor="start" direction="ltr" writing-mode="lr-tb" unicode-bidi="normal" text-decoration="none" transform="matrix(1 0 0 1 416.87 3270)">OpenMP 4.5 </text></g><g clip-path="url(#clip44)"><text fill="#376092" fill-opacity="1" font-family="Calibri,Calibri_MSFontService,sans-serif" font-style="normal" font-variant="normal" font-weight="700" font-stretch="normal" font-size="73" text-anchor="start" direction="ltr" writing-mode="lr-tb" unicode-bidi="normal" text-decoration="none" transform="matrix(1 0 0 1 382.518 3359)">Enhancements </text></g><g clip-path="url(#clip45)"><text fill="#376092" fill-opacity="1" font-family="Calibri,Calibri_MSFontService,sans-serif" font-style="normal" font-variant="normal" font-weight="700" font-stretch="normal" font-size="73" text-anchor="start" direction="ltr" writing-mode="lr-tb" unicode-bidi="normal" text-decoration="none" transform="matrix(1 0 0 1 445.447 3449)">for tasking</text></g><g clip-path="url(#clip46)"><rect x="1927" y="3644" width="410" height="271" fill="#FFFFFF" fill-opacity="0.721569"/></g><g clip-path="url(#clip47)"><text fill="#376092" fill-opacity="1" font-family="Calibri,Calibri_MSFontService,sans-serif" font-style="normal" font-variant="normal" font-weight="700" font-stretch="normal" font-size="73" text-anchor="start" direction="ltr" writing-mode="lr-tb" unicode-bidi="normal" text-decoration="none" transform="matrix(1 0 0 1 1942.53 3715)">OpenMP 5.0 </text></g><g clip-path="url(#clip48)"><text fill="#376092" fill-opacity="1" font-family="Calibri,Calibri_MSFontService,sans-serif" font-style="normal" font-variant="normal" font-weight="700" font-stretch="normal" font-size="73" text-anchor="start" direction="ltr" writing-mode="lr-tb" unicode-bidi="normal" text-decoration="none" transform="matrix(1 0 0 1 1966.15 3804)">Major leap </text></g><g clip-path="url(#clip49)"><text fill="#376092" fill-opacity="1" font-family="Calibri,Calibri_MSFontService,sans-serif" font-style="normal" font-variant="normal" font-weight="700" font-stretch="normal" font-size="73" text-anchor="start" direction="ltr" writing-mode="lr-tb" unicode-bidi="normal" text-decoration="none" transform="matrix(1 0 0 1 2010.64 3894)">forward</text></g><g clip-path="url(#clip50)"><rect x="1631" y="3941" width="476" height="181" fill="#FFFFFF" fill-opacity="0.721569"/></g><g clip-path="url(#clip51)"><text fill="#376092" fill-opacity="1" font-family="Calibri,Calibri_MSFontService,sans-serif" font-style="normal" font-variant="normal" font-weight="700" font-stretch="normal" font-size="73" text-anchor="start" direction="ltr" writing-mode="lr-tb" unicode-bidi="normal" text-decoration="none" transform="matrix(1 0 0 1 1679.48 4012)">OpenMP 5.1 </text></g><g clip-path="url(#clip52)"><text fill="#376092" fill-opacity="1" font-family="Calibri,Calibri_MSFontService,sans-serif" font-style="normal" font-variant="normal" font-weight="700" font-stretch="normal" font-size="73" text-anchor="start" direction="ltr" writing-mode="lr-tb" unicode-bidi="normal" text-decoration="none" transform="matrix(1 0 0 1 1647.01 4101)">Improvements</text></g><g clip-path="url(#clip53)"><rect x="138" y="4375" width="410" height="181" fill="#FFFFFF" fill-opacity="0.721569"/></g><g clip-path="url(#clip54)"><text fill="#376092" fill-opacity="1" font-family="Calibri,Calibri_MSFontService,sans-serif" font-style="normal" font-variant="normal" font-weight="700" font-stretch="normal" font-size="73" text-anchor="start" direction="ltr" writing-mode="lr-tb" unicode-bidi="normal" text-decoration="none" transform="matrix(1 0 0 1 153.827 4446)">OpenMP 6.0 </text></g><g clip-path="url(#clip55)"><text fill="#376092" fill-opacity="1" font-family="Calibri,Calibri_MSFontService,sans-serif" font-style="normal" font-variant="normal" font-weight="700" font-stretch="normal" font-size="73" text-anchor="start" direction="ltr" writing-mode="lr-tb" unicode-bidi="normal" text-decoration="none" transform="matrix(1 0 0 1 126.808 4535)">Released 2024</text></g><g clip-path="url(#clip56)"><text fill="#1F497D" fill-opacity="1" font-family="Calibri,Calibri_MSFontService,sans-serif" font-style="normal" font-variant="normal" font-weight="700" font-stretch="normal" font-size="92" text-anchor="start" direction="ltr" writing-mode="lr-tb" unicode-bidi="normal" text-decoration="none" transform="matrix(1 0 0 1 966.738 516)">1997</text></g><g clip-path="url(#clip57)"><text fill="#1F497D" fill-opacity="1" font-family="Calibri,Calibri_MSFontService,sans-serif" font-style="normal" font-variant="normal" font-weight="700" font-stretch="normal" font-size="92" text-anchor="start" direction="ltr" writing-mode="lr-tb" unicode-bidi="normal" text-decoration="none" transform="matrix(1 0 0 1 966.738 813)">1999</text></g><g clip-path="url(#clip58)"><text fill="#1F497D" fill-opacity="1" font-family="Calibri,Calibri_MSFontService,sans-serif" font-style="normal" font-variant="normal" font-weight="700" font-stretch="normal" font-size="92" text-anchor="start" direction="ltr" writing-mode="lr-tb" unicode-bidi="normal" text-decoration="none" transform="matrix(1 0 0 1 966.738 1110)">2001</text></g><g clip-path="url(#clip59)"><text fill="#1F497D" fill-opacity="1" font-family="Calibri,Calibri_MSFontService,sans-serif" font-style="normal" font-variant="normal" font-weight="700" font-stretch="normal" font-size="92" text-anchor="start" direction="ltr" writing-mode="lr-tb" unicode-bidi="normal" text-decoration="none" transform="matrix(1 0 0 1 966.738 1407)">2003</text></g><g clip-path="url(#clip60)"><text fill="#1F497D" fill-opacity="1" font-family="Calibri,Calibri_MSFontService,sans-serif" font-style="normal" font-variant="normal" font-weight="700" font-stretch="normal" font-size="92" text-anchor="start" direction="ltr" writing-mode="lr-tb" unicode-bidi="normal" text-decoration="none" transform="matrix(1 0 0 1 966.738 1704)">2005</text></g><g clip-path="url(#clip61)"><text fill="#1F497D" fill-opacity="1" font-family="Calibri,Calibri_MSFontService,sans-serif" font-style="normal" font-variant="normal" font-weight="700" font-stretch="normal" font-size="92" text-anchor="start" direction="ltr" writing-mode="lr-tb" unicode-bidi="normal" text-decoration="none" transform="matrix(1 0 0 1 966.738 2001)">2007</text></g><g clip-path="url(#clip62)"><text fill="#1F497D" fill-opacity="1" font-family="Calibri,Calibri_MSFontService,sans-serif" font-style="normal" font-variant="normal" font-weight="700" font-stretch="normal" font-size="92" text-anchor="start" direction="ltr" writing-mode="lr-tb" unicode-bidi="normal" text-decoration="none" transform="matrix(1 0 0 1 966.738 2298)">2009</text></g><g clip-path="url(#clip63)"><text fill="#1F497D" fill-opacity="1" font-family="Calibri,Calibri_MSFontService,sans-serif" font-style="normal" font-variant="normal" font-weight="700" font-stretch="normal" font-size="92" text-anchor="start" direction="ltr" writing-mode="lr-tb" unicode-bidi="normal" text-decoration="none" transform="matrix(1 0 0 1 966.738 2595)">2011</text></g><g clip-path="url(#clip64)"><text fill="#1F497D" fill-opacity="1" font-family="Calibri,Calibri_MSFontService,sans-serif" font-style="normal" font-variant="normal" font-weight="700" font-stretch="normal" font-size="92" text-anchor="start" direction="ltr" writing-mode="lr-tb" unicode-bidi="normal" text-decoration="none" transform="matrix(1 0 0 1 966.738 2892)">2013</text></g><g clip-path="url(#clip65)"><text fill="#1F497D" fill-opacity="1" font-family="Calibri,Calibri_MSFontService,sans-serif" font-style="normal" font-variant="normal" font-weight="700" font-stretch="normal" font-size="92" text-anchor="start" direction="ltr" writing-mode="lr-tb" unicode-bidi="normal" text-decoration="none" transform="matrix(1 0 0 1 966.738 3189)">2015</text></g><g clip-path="url(#clip66)"><text fill="#1F497D" fill-opacity="1" font-family="Calibri,Calibri_MSFontService,sans-serif" font-style="normal" font-variant="normal" font-weight="700" font-stretch="normal" font-size="92" text-anchor="start" direction="ltr" writing-mode="lr-tb" unicode-bidi="normal" text-decoration="none" transform="matrix(1 0 0 1 966.738 3486)">2017</text></g><g clip-path="url(#clip67)"><text fill="#1F497D" fill-opacity="1" font-family="Calibri,Calibri_MSFontService,sans-serif" font-style="normal" font-variant="normal" font-weight="700" font-stretch="normal" font-size="92" text-anchor="start" direction="ltr" writing-mode="lr-tb" unicode-bidi="normal" text-decoration="none" transform="matrix(1 0 0 1 966.738 3783)">2019</text></g><g clip-path="url(#clip68)"><text fill="#1F497D" fill-opacity="1" font-family="Calibri,Calibri_MSFontService,sans-serif" font-style="normal" font-variant="normal" font-weight="700" font-stretch="normal" font-size="92" text-anchor="start" direction="ltr" writing-mode="lr-tb" unicode-bidi="normal" text-decoration="none" transform="matrix(1 0 0 1 966.738 4080)">2021</text></g><g clip-path="url(#clip69)"><text fill="#1F497D" fill-opacity="1" font-family="Calibri,Calibri_MSFontService,sans-serif" font-style="normal" font-variant="normal" font-weight="700" font-stretch="normal" font-size="92" text-anchor="start" direction="ltr" writing-mode="lr-tb" unicode-bidi="normal" text-decoration="none" transform="matrix(1 0 0 1 966.738 4377)">2023</text></g><g clip-path="url(#clip70)"><text fill="#376092" fill-opacity="1" font-family="Calibri,Calibri_MSFontService,sans-serif" font-style="normal" font-variant="normal" font-weight="700" font-stretch="normal" font-size="128" text-anchor="start" direction="ltr" writing-mode="lr-tb" unicode-bidi="normal" text-decoration="none" transform="matrix(1 0 0 1 570.51 218)">OpenMP Version Timeline</text></g><rect x="45.4999" y="62.5001" width="2438" height="4494" stroke="#4F81BD" stroke-width="9.16667" stroke-linecap="butt" stroke-linejoin="round" stroke-miterlimit="10" stroke-opacity="1" fill="none"/></g></svg>